<svg width="28" height="28" viewBox="0 0 28 28" fill="none" xmlns="http://www.w3.org/2000/svg">
<path d="M7.58292 9.53286V4.78335C7.58292 4.46092 7.32173 4.20001 6.99959 4.20001C6.67744 4.20001 6.41625 4.46092 6.41625 4.78335V9.53286C5.41276 9.7937 4.66626 10.6991 4.66626 11.7833C4.66626 12.8676 5.41276 13.773 6.41625 14.0338V22.2833C6.41625 22.6058 6.67744 22.8667 6.99959 22.8667C7.32173 22.8667 7.58292 22.6058 7.58292 22.2833V14.0338C8.58641 13.773 9.33291 12.8676 9.33291 11.7833C9.33291 10.6991 8.58641 9.7937 7.58292 9.53286Z" fill="#5A5A89"/>
<path d="M14.5829 13.6162V4.78335C14.5829 4.46092 14.3217 4.20001 13.9996 4.20001C13.6774 4.20001 13.4163 4.46092 13.4163 4.78335V13.6162C12.4128 13.877 11.6663 14.7824 11.6663 15.8667C11.6663 16.9509 12.4128 17.8563 13.4163 18.1172V22.2833C13.4163 22.6058 13.6774 22.8667 13.9996 22.8667C14.3217 22.8667 14.5829 22.6058 14.5829 22.2833V18.1172C15.5864 17.8563 16.3329 16.9509 16.3329 15.8667C16.3329 14.7824 15.5864 13.877 14.5829 13.6162Z" fill="#5A5A89"/>
<path d="M23.3329 11.7833C23.3329 10.6991 22.5864 9.7937 21.5829 9.53286V4.78335C21.5829 4.46092 21.3217 4.20001 20.9996 4.20001C20.6774 4.20001 20.4163 4.46092 20.4163 4.78335V9.53286C19.4128 9.7937 18.6663 10.6991 18.6663 11.7833C18.6663 12.8676 19.4128 13.773 20.4163 14.0338V22.2833C20.4163 22.6058 20.6774 22.8667 20.9996 22.8667C21.3217 22.8667 21.5829 22.6058 21.5829 22.2833V14.0338C22.5864 13.773 23.3329 12.8676 23.3329 11.7833Z" fill="#5A5A89"/>
</svg>
